<svg width="54" height="54" viewBox="0 0 54 54" fill="none" xmlns="http://www.w3.org/2000/svg">
<g filter="url(#filter0_dd_2726_687)">
<path d="M3 16C3 8.26801 9.26801 2 17 2H37C44.732 2 51 8.26801 51 16V36C51 43.732 44.732 50 37 50H17C9.26801 50 3 43.732 3 36V16Z" fill="white" shape-rendering="crispEdges"/>
<path d="M27 16V36" stroke="#9810FA" stroke-width="2" stroke-linecap="round" stroke-linejoin="round"/>
<path d="M32 19H24.5C23.5717 19 22.6815 19.3687 22.0251 20.0251C21.3687 20.6815 21 21.5717 21 22.5C21 23.4283 21.3687 24.3185 22.0251 24.9749C22.6815 25.6313 23.5717 26 24.5 26H29.5C30.4283 26 31.3185 26.3687 31.9749 27.0251C32.6313 27.6815 33 28.5717 33 29.5C33 30.4283 32.6313 31.3185 31.9749 31.9749C31.3185 32.6313 30.4283 33 29.5 33H21" stroke="#9810FA" stroke-width="2" stroke-linecap="round" stroke-linejoin="round"/>
</g>
<defs>
<filter id="filter0_dd_2726_687" x="0" y="0" width="54" height="54" filterUnits="userSpaceOnUse" color-interpolation-filters="sRGB">
<feFlood flood-opacity="0" result="BackgroundImageFix"/>
<feColorMatrix in="SourceAlpha" type="matrix" values="0 0 0 0 0 0 0 0 0 0 0 0 0 0 0 0 0 0 127 0" result="hardAlpha"/>
<feMorphology radius="1" operator="erode" in="SourceAlpha" result="effect1_dropShadow_2726_687"/>
<feOffset dy="1"/>
<feGaussianBlur stdDeviation="1"/>
<feComposite in2="hardAlpha" operator="out"/>
<feColorMatrix type="matrix" values="0 0 0 0 0 0 0 0 0 0 0 0 0 0 0 0 0 0 0.1 0"/>
<feBlend mode="normal" in2="BackgroundImageFix" result="effect1_dropShadow_2726_687"/>
<feColorMatrix in="SourceAlpha" type="matrix" values="0 0 0 0 0 0 0 0 0 0 0 0 0 0 0 0 0 0 127 0" result="hardAlpha"/>
<feOffset dy="1"/>
<feGaussianBlur stdDeviation="1.5"/>
<feComposite in2="hardAlpha" operator="out"/>
<feColorMatrix type="matrix" values="0 0 0 0 0 0 0 0 0 0 0 0 0 0 0 0 0 0 0.1 0"/>
<feBlend mode="normal" in2="effect1_dropShadow_2726_687" result="effect2_dropShadow_2726_687"/>
<feBlend mode="normal" in="SourceGraphic" in2="effect2_dropShadow_2726_687" result="shape"/>
</filter>
</defs>
</svg>
