<svg width="54" height="54" viewBox="0 0 54 54" fill="none" xmlns="http://www.w3.org/2000/svg">
<g filter="url(#filter0_dd_2726_665)">
<path d="M3 16C3 8.26801 9.26801 2 17 2H37C44.732 2 51 8.26801 51 16V36C51 43.732 44.732 50 37 50H17C9.26801 50 3 43.732 3 36V16Z" fill="white" shape-rendering="crispEdges"/>
<path d="M35 22H19C18.4477 22 18 22.4477 18 23V25C18 25.5523 18.4477 26 19 26H35C35.5523 26 36 25.5523 36 25V23C36 22.4477 35.5523 22 35 22Z" stroke="#9810FA" stroke-width="2" stroke-linecap="round" stroke-linejoin="round"/>
<path d="M27 22V35" stroke="#9810FA" stroke-width="2" stroke-linecap="round" stroke-linejoin="round"/>
<path d="M34 26V33C34 33.5304 33.7893 34.0391 33.4142 34.4142C33.0391 34.7893 32.5304 35 32 35H22C21.4696 35 20.9609 34.7893 20.5858 34.4142C20.2107 34.0391 20 33.5304 20 33V26" stroke="#9810FA" stroke-width="2" stroke-linecap="round" stroke-linejoin="round"/>
<path d="M22.5 22.0004C21.837 22.0004 21.2011 21.737 20.7322 21.2682C20.2634 20.7994 20 20.1635 20 19.5004C20 18.8374 20.2634 18.2015 20.7322 17.7327C21.2011 17.2638 21.837 17.0004 22.5 17.0004C23.4647 16.9836 24.41 17.4517 25.2127 18.3436C26.0154 19.2355 26.6383 20.5098 27 22.0004C27.3617 20.5098 27.9846 19.2355 28.7873 18.3436C29.59 17.4517 30.5353 16.9836 31.5 17.0004C32.163 17.0004 32.7989 17.2638 33.2678 17.7327C33.7366 18.2015 34 18.8374 34 19.5004C34 20.1635 33.7366 20.7994 33.2678 21.2682C32.7989 21.737 32.163 22.0004 31.5 22.0004" stroke="#9810FA" stroke-width="2" stroke-linecap="round" stroke-linejoin="round"/>
</g>
<defs>
<filter id="filter0_dd_2726_665" x="0" y="0" width="54" height="54" filterUnits="userSpaceOnUse" color-interpolation-filters="sRGB">
<feFlood flood-opacity="0" result="BackgroundImageFix"/>
<feColorMatrix in="SourceAlpha" type="matrix" values="0 0 0 0 0 0 0 0 0 0 0 0 0 0 0 0 0 0 127 0" result="hardAlpha"/>
<feMorphology radius="1" operator="erode" in="SourceAlpha" result="effect1_dropShadow_2726_665"/>
<feOffset dy="1"/>
<feGaussianBlur stdDeviation="1"/>
<feComposite in2="hardAlpha" operator="out"/>
<feColorMatrix type="matrix" values="0 0 0 0 0 0 0 0 0 0 0 0 0 0 0 0 0 0 0.1 0"/>
<feBlend mode="normal" in2="BackgroundImageFix" result="effect1_dropShadow_2726_665"/>
<feColorMatrix in="SourceAlpha" type="matrix" values="0 0 0 0 0 0 0 0 0 0 0 0 0 0 0 0 0 0 127 0" result="hardAlpha"/>
<feOffset dy="1"/>
<feGaussianBlur stdDeviation="1.5"/>
<feComposite in2="hardAlpha" operator="out"/>
<feColorMatrix type="matrix" values="0 0 0 0 0 0 0 0 0 0 0 0 0 0 0 0 0 0 0.1 0"/>
<feBlend mode="normal" in2="effect1_dropShadow_2726_665" result="effect2_dropShadow_2726_665"/>
<feBlend mode="normal" in="SourceGraphic" in2="effect2_dropShadow_2726_665" result="shape"/>
</filter>
</defs>
</svg>
