<?xml version="1.0" encoding="UTF-8"?>
<!DOCTYPE svg PUBLIC "-//W3C//DTD SVG 1.1//EN" "http://www.w3.org/Graphics/SVG/1.1/DTD/svg11.dtd">
<!-- Creator: CorelDRAW 2021 (64-Bit) -->
<svg xmlns="http://www.w3.org/2000/svg" xml:space="preserve" width="84.4667mm" height="20.4755mm" version="1.1" style="shape-rendering:geometricPrecision; text-rendering:geometricPrecision; image-rendering:optimizeQuality; fill-rule:evenodd; clip-rule:evenodd"
viewBox="0 0 561.03 136"
 xmlns:xlink="http://www.w3.org/1999/xlink"
 xmlns:xodm="http://www.corel.com/coreldraw/odm/2003">
 <defs>
  <style type="text/css">
   <![CDATA[
    .fil2 {fill:black}
    .fil3 {fill:#233E97}
    .fil4 {fill:#A16AD4}
    .fil0 {fill:black;fill-rule:nonzero}
    .fil1 {fill:#233E97;fill-rule:nonzero}
   ]]>
  </style>
 </defs>
 <g id="Layer_x0020_1">
  <metadata id="CorelCorpID_0Corel-Layer"/>
  <path class="fil0" d="M98.33 136l15.94 0 0 -43.07c0,-14.12 7.69,-21.39 19.44,-21.39 11.61,0 19.3,7.27 19.3,21.39l0 43.07 15.8 0 0 -45.45c0,-21.53 -13.42,-32.86 -30.62,-32.86 -9.93,0 -14.48,0.33 -23.91,0.64l0 -25.81 -15.94 0 0 103.48z"/>
  <path class="fil0" d="M172.77 95.87c0,23.77 16.08,40.13 36.08,40.13 12.86,0 22.09,-6.15 26.99,-12.73l0 11.47 16.08 0 0 -65.92 -16.08 0.06c-4.75,-6.29 -13.7,-12.45 -26.71,-12.45 -20.28,0 -36.36,15.66 -36.36,39.43zm63.07 0.28c0,16.64 -11.33,26.01 -23.35,26.01 -11.89,0 -23.35,-9.65 -23.35,-26.29 0,-16.64 11.47,-25.59 23.35,-25.59 12.03,0 23.35,9.37 23.35,25.87z"/>
  <path class="fil0" d="M272.63 95.45c0,-16.36 7.27,-21.25 19.02,-21.25l4.06 0 0 -16.5c-5.21,0 -23.07,12.45 -23.07,12.45l-15.94 0.19 0 65.67 15.94 0 0 -40.55z"/>
  <path class="fil1" d="M388.64 83.56l0 -31.74 17.62 0c12.45,0 18.04,5.87 18.04,15.94 0,9.79 -5.59,15.8 -18.04,15.8l-17.62 0zm52.02 -15.8c0,-15.8 -11.33,-28.95 -34.4,-28.95l-33.56 0 0 97.18 15.94 0 0 -39.43 17.62 0c25.31,0 34.4,-14.96 34.4,-28.81z"/>
  <path class="fil2" d="M340.49 134.96l-4.83 -12.83c-1.49,0.29 -3.11,0.44 -4.87,0.44 -11.75,0 -20.84,-7.69 -21.95,-20.42l58.87 0c0.42,-2.66 0.56,-5.17 0.56,-7.83 0,-22.65 -15.52,-37.9 -37.48,-37.9 -22.79,0 -38.45,15.52 -38.45,39.71 0,24.19 16.36,39.85 38.45,39.85 3.46,0 6.7,-0.36 9.7,-1.04zm11.13 -45.67l-42.65 0c1.68,-12.17 10.35,-19.44 21.11,-19.44 11.89,0 21.26,7.55 21.53,19.44z"/>
  <path class="fil1" d="M461.3 95.45c0,-16.36 7.27,-21.25 19.02,-21.25l4.06 0 0 -16.5c-5.21,0 -23.07,12.45 -23.07,12.45l-15.94 0.19 0 65.67 15.94 0 0 -40.55z"/>
  <path class="fil3" d="M526.97 70.9l8.39 -12.3c-4.23,-1.42 -8.82,-2.16 -13.63,-2.16 -21.95,0 -39.29,15.52 -39.29,39.71 0,24.19 16.64,39.85 38.59,39.85 22.09,0 39.99,-15.66 39.99,-39.85 0,-9.53 -2.69,-17.71 -7.29,-24.13l-10.25 15.03c0.77,2.7 1.19,5.73 1.19,9.11 0,17.48 -11.75,26.01 -23.63,26.01 -12.03,0 -22.37,-8.53 -22.37,-26.01 0,-17.48 10.77,-25.87 22.79,-25.87 1.87,0 3.72,0.21 5.52,0.62z"/>
  <path class="fil4" d="M537.94 66.94c-0.34,-0.06 -2.5,-1.37 -2.99,-1.65 -1.6,-0.92 -2.19,0.01 -2.82,1.1 -0.79,1.37 -0.96,2.13 0.48,2.99l2.74 1.61c0.18,0.16 0.01,-0.05 0.15,0.18 -0.85,0.38 -2.14,1.19 -2.99,1.7 -0.51,0.3 -0.9,0.58 -0.97,1.32 -0.07,0.73 0.31,1.17 0.6,1.66 0.69,1.2 1.25,1.96 2.89,1.02 0.52,-0.3 2.42,-1.5 2.9,-1.63 0.1,1.23 -0.08,2.62 0.02,3.84 0.11,1.25 1.09,1.46 2.33,1.46 3.02,0 2.36,-1.44 2.37,-5.29 0.7,0.22 2.24,1.26 3,1.68 1.68,0.93 2.18,-0.08 2.85,-1.18 0.8,-1.32 0.85,-2.14 -0.57,-2.94 -0.97,-0.55 -1.92,-1.16 -2.86,-1.65 0.12,-0.16 -0.03,-0.02 0.2,-0.21 0.01,-0 0.16,-0.11 0.17,-0.11 2.95,-1.8 4.52,-1.82 3.01,-4.46 -0.6,-1.04 -1.2,-2.03 -2.83,-1.08l-2.94 1.67c-0.3,-3.22 1.05,-5.29 -2.4,-5.29 -3.13,-0 -2.23,1.57 -2.35,5.27z"/>
  <path class="fil4" d="M38.3 114.83l-4.02 9.19 26.96 -9.05 -10.45 -26.65 -4.33 8.67c-2.67,-0.84 -6.69,-2.98 -9.33,-4.2 -7.08,-3.27 -20.16,-8.85 -25.88,-13.24 -8.72,-6.69 -14.5,-24.47 -8.84,-39.23 2.64,-6.89 6.68,-11.52 11.63,-14.91 6.33,-4.34 12.77,-4.23 21.63,-4.23 17.34,0 35.22,0.43 52.49,-0.03 0.72,3.06 0.15,32.61 0.28,38.66 -2.81,-0.77 -7.09,-3.14 -9.84,-4.44l-28.36 -13.36 3.88 -8.88 -26.66 8.98c0.32,2.79 8.3,21.83 9.9,26.6 0.72,-0.67 -0.06,0.41 0.91,-1.1 0.81,-1.27 2.21,-5.61 3.71,-7.46 2.34,0.66 6.63,3.01 9.18,4.21 7.57,3.55 21.04,8.85 25.91,13.18 16.53,14.7 14.52,42.72 -2.59,54.13 -6.87,4.58 -12.46,4.28 -21.72,4.28 -17.55,0 -35.12,-0.08 -52.74,0.02l0.1 -38.78 38.2 17.61z"/>
  <g id="_1825285275888">
   <circle class="fil4" cx="35.71" cy="8.45" r="8.45"/>
   <circle class="fil4" cx="58.09" cy="8.45" r="8.45"/>
  </g>
 </g>
</svg>
