<svg width="1222" height="400" viewBox="0 0 1222 400" fill="none" xmlns="http://www.w3.org/2000/svg">
<path d="M-80.5505 232.483C-80.0508 222.773 -78.2354 213.073 -72.9725 203.875C-63.7008 187.671 -47.8019 200.215 -29.5496 207.16C-21.6133 210.179 -12.4859 214.814 -5.80842 208.57C2.04969 201.223 -1.87774 189.923 3.20333 181.801C12.0766 167.617 33.2063 151.284 63.4561 149.074C93.2503 146.897 126.577 155.505 148.112 166.823C162.759 174.521 176.176 183.488 188.135 193.148M188.135 193.148C210.907 211.544 228.392 232.455 239.011 251.911C256.69 284.305 277.925 364.3 170.386 348.557C136.129 343.542 113.561 330.457 105.132 312.206C83.9891 266.43 125.339 229.316 179.512 198.041C182.343 196.406 185.217 194.774 188.135 193.148ZM188.135 193.148C233.6 167.809 289.586 144.006 357.103 137.369C389.101 134.224 424.673 137.106 458.478 143.621M458.478 143.621C493.05 150.283 525.776 160.743 550.946 172.441C674.798 229.999 685.676 338.017 594.64 400.965C560.905 424.291 498.61 439.793 447.497 416.003C424.535 405.315 417.741 396.261 411.534 380.109C391.77 328.685 403.663 271.653 420.472 221.962C429.47 195.362 441.845 169.011 458.478 143.621ZM458.478 143.621C483.779 105 518.932 68.6028 567.041 36.9338C585.703 24.6492 621.925 6.05178 646.457 -3.66654C675.001 -14.9739 713.118 -27.5186 752.174 -24.7106C781.637 -22.5923 800.308 -15.3806 821.965 -4.25972C866.802 18.7639 890.29 48.8787 907.119 79.5547C918.276 99.8942 928.555 121.727 935.251 143.804M935.251 143.804C943.887 172.275 946.564 201.151 937.482 227.748C933.107 240.562 925.345 257.754 904.823 265.951C884.126 274.217 856.913 266.847 847.277 254.436C827.749 229.284 847.196 193.413 872.154 173.088C887.62 160.492 909.742 150.493 935.251 143.804ZM935.251 143.804C956.525 138.225 980.155 134.948 1004.24 134.388C1039.25 133.573 1079.1 135.302 1106.16 149.818C1111.4 152.633 1116.3 155.641 1120.83 158.802M1120.83 158.802C1140.81 172.74 1153.71 189.664 1158.53 206.293C1159.61 210.03 1168.89 229.711 1152.46 228.945C1123.95 227.616 1109.71 210.173 1105.53 197.549C1100.3 181.754 1106.79 168.617 1120.83 158.802ZM1120.83 158.802C1143.88 142.685 1187.29 135.522 1232.57 140.251C1264.79 143.616 1299.24 156.226 1302.88 174.441" stroke="#9B61D1" stroke-width="155" stroke-linejoin="round"/>
</svg>
