<svg width="1512" height="272" viewBox="0 0 1512 272" fill="none" xmlns="http://www.w3.org/2000/svg">
<path d="M-187.736 179.301C-187.055 166.062 -184.58 152.838 -177.404 140.297C-164.764 118.205 -143.087 135.307 -118.203 144.775C-107.383 148.892 -94.9387 155.211 -85.8348 146.699C-75.1212 136.681 -80.4758 121.275 -73.5484 110.202C-61.4508 90.8637 -32.6432 68.5957 8.59847 65.5825C49.219 62.6147 94.6559 74.3508 124.016 89.7817C143.985 100.277 162.277 112.501 178.581 125.672M178.581 125.672C209.629 150.752 233.468 179.262 247.944 205.788C272.047 249.953 300.999 359.015 154.384 337.552C107.678 330.715 76.9106 312.875 65.4177 287.992C36.5925 225.583 92.9679 174.982 166.825 132.343C170.685 130.114 174.604 127.889 178.581 125.672ZM178.581 125.672C240.568 91.1258 316.897 58.6731 408.948 49.6251C452.574 45.337 501.07 49.2665 547.16 58.148M547.16 58.148C594.294 67.2308 638.911 81.4924 673.227 97.4403C842.084 175.913 856.915 323.182 732.799 409.003C686.806 440.806 601.875 461.941 532.189 429.506C500.882 414.935 491.62 402.591 483.157 380.569C456.212 310.46 472.427 232.704 495.344 164.956C507.611 128.69 524.483 92.7643 547.16 58.148ZM547.16 58.148C581.654 5.49418 629.581 -44.1291 695.171 -87.3056C720.614 -104.054 769.998 -129.409 803.445 -142.659C842.36 -158.075 894.328 -175.178 947.576 -171.35C987.745 -168.462 1013.2 -158.63 1042.73 -143.468C1103.86 -112.078 1135.88 -71.0203 1158.82 -29.1976C1174.04 -1.46734 1188.05 28.2995 1197.18 58.3975M1197.18 58.3975C1208.95 97.215 1212.6 136.583 1200.22 172.845C1194.25 190.315 1183.67 213.755 1155.69 224.929C1127.48 236.199 1090.37 226.151 1077.24 209.23C1050.61 174.938 1077.13 126.034 1111.15 98.3231C1132.24 81.1504 1162.4 67.5176 1197.18 58.3975ZM1197.18 58.3975C1226.18 50.7914 1258.4 46.3241 1291.24 45.5599C1338.97 44.4495 1393.3 46.8068 1430.19 66.5971C1437.34 70.4358 1444.01 74.5358 1450.19 78.8453M1450.19 78.8453C1477.43 97.8489 1495.02 120.923 1501.59 143.593C1503.07 148.689 1515.72 175.522 1493.32 174.477C1454.45 172.665 1435.04 148.883 1429.33 131.672C1422.2 110.138 1431.05 92.2276 1450.19 78.8453ZM1450.19 78.8453C1481.62 56.8727 1540.8 47.1072 1602.53 53.5535C1646.46 58.141 1693.43 75.3341 1698.39 100.167" stroke="white" stroke-opacity="0.04" stroke-width="155" stroke-linejoin="round"/>
</svg>
