<svg width="100" height="100" viewBox="0 0 100 100" fill="none" xmlns="http://www.w3.org/2000/svg">
<g clip-path="url(#clip0_1845_28947)">
<path fill-rule="evenodd" clip-rule="evenodd" d="M90.8714 0.26365C88.7318 -0.212965 86.5003 -0.0641949 84.4429 0.692222L7.90716 26.2351L7.88573 26.2422C5.94158 26.9052 4.20894 28.0737 2.86576 29.6278C1.52259 31.1818 0.6173 33.0654 0.24287 35.0851C-0.129239 36.9334 -0.0383056 38.845 0.507566 40.6496C1.05344 42.4542 2.03729 44.0958 3.37144 45.4279L21.8572 63.8851L21.25 87.1208C21.2337 87.7418 21.3796 88.3562 21.6734 88.9036C21.9672 89.4509 22.3986 89.9121 22.9251 90.2417C23.4516 90.5714 24.055 90.7579 24.6757 90.7831C25.2964 90.8082 25.9129 90.671 26.4643 90.3851L40.85 82.9422L54.5429 96.5779C55.9292 97.9906 57.6587 99.0189 59.5619 99.5624C61.4651 100.106 63.4768 100.146 65.4 99.6779C67.327 99.226 69.1058 98.2874 70.5664 96.9518C72.0271 95.6162 73.1208 93.9283 73.7429 92.0494V92.0422L99.2786 15.5279C99.8433 13.977 100.07 12.3232 99.9424 10.6775C99.8152 9.0319 99.3374 7.43251 98.5411 5.98675C97.7449 4.54099 96.6485 3.2823 95.3256 2.2952C94.0028 1.30809 92.4841 0.61541 90.8714 0.26365Z" fill="#8FBFFA"/>
<path d="M21.8501 63.8848L21.2429 87.1205C21.2266 87.7414 21.3726 88.3559 21.6663 88.9033C21.9601 89.4506 22.3915 89.9118 22.918 90.2414C23.4446 90.571 24.0479 90.7576 24.6686 90.7828C25.2893 90.8079 25.9058 90.6707 26.4572 90.3848L40.8429 82.9419L21.8501 63.8848Z" fill="#2859C5"/>
<path fill-rule="evenodd" clip-rule="evenodd" d="M21.8358 64.3773L72.1573 27.8273C72.6319 27.4826 73.034 27.0478 73.3406 26.5477C73.6472 26.0476 73.8522 25.492 73.9441 24.9126C74.036 24.3332 74.0128 23.7414 73.876 23.171C73.7391 22.6006 73.4913 22.0627 73.1466 21.588C72.8018 21.1134 72.367 20.7113 71.8669 20.4047C71.3668 20.0982 70.8112 19.8931 70.2318 19.8012C69.6524 19.7093 69.0606 19.7325 68.4902 19.8693C67.9198 20.0062 67.3819 20.254 66.9073 20.5988L15.7358 57.7702L21.8501 63.8845L21.8358 64.3773Z" fill="#2859C5"/>
</g>
<defs>
<clipPath id="clip0_1845_28947">
<rect width="100" height="100" fill="white"/>
</clipPath>
</defs>
</svg>
