<svg width="64" height="64" viewBox="0 0 64 64" fill="none" xmlns="http://www.w3.org/2000/svg">
<path d="M0 16C0 7.16344 7.16344 0 16 0H48C56.8366 0 64 7.16344 64 16V48C64 56.8366 56.8366 64 48 64H16C7.16344 64 0 56.8366 0 48V16Z" fill="#D0FAD8"/>
<path d="M31.9993 45.3346C28.4631 45.3346 25.0717 43.9299 22.5713 41.4294C20.0708 38.9289 18.666 35.5375 18.666 32.0013C18.666 28.4651 20.0708 25.0737 22.5713 22.5732C25.0717 20.0727 28.4631 18.668 31.9993 18.668C35.5355 18.668 38.9269 19.9322 41.4274 22.1827C43.9279 24.4331 45.3326 27.4854 45.3326 30.668C45.3326 32.4361 44.6303 34.1318 43.38 35.382C42.1298 36.6323 40.4341 37.3346 38.666 37.3346H35.666C35.2326 37.3346 34.8079 37.4553 34.4393 37.6831C34.0706 37.9109 33.7728 38.2369 33.579 38.6245C33.3852 39.012 33.3031 39.4459 33.3421 39.8775C33.381 40.3091 33.5393 40.7213 33.7993 41.068L34.1993 41.6013C34.4593 41.948 34.6176 42.3602 34.6565 42.7918C34.6955 43.2233 34.6134 43.6572 34.4196 44.0448C34.2258 44.4324 33.9279 44.7583 33.5593 44.9862C33.1907 45.214 32.766 45.3346 32.3326 45.3346H31.9993Z" stroke="#16D923" stroke-width="2.66667" stroke-linecap="round" stroke-linejoin="round"/>
<path d="M33.9987 25.3333C34.3669 25.3333 34.6654 25.0349 34.6654 24.6667C34.6654 24.2985 34.3669 24 33.9987 24C33.6305 24 33.332 24.2985 33.332 24.6667C33.332 25.0349 33.6305 25.3333 33.9987 25.3333Z" stroke="#16D923" stroke-width="2.66667" stroke-linecap="round" stroke-linejoin="round"/>
<path d="M39.3326 30.6693C39.7008 30.6693 39.9993 30.3708 39.9993 30.0026C39.9993 29.6344 39.7008 29.3359 39.3326 29.3359C38.9644 29.3359 38.666 29.6344 38.666 30.0026C38.666 30.3708 38.9644 30.6693 39.3326 30.6693Z" stroke="#16D923" stroke-width="2.66667" stroke-linecap="round" stroke-linejoin="round"/>
<path d="M24.6667 33.3333C25.0349 33.3333 25.3333 33.0349 25.3333 32.6667C25.3333 32.2985 25.0349 32 24.6667 32C24.2985 32 24 32.2985 24 32.6667C24 33.0349 24.2985 33.3333 24.6667 33.3333Z" stroke="#16D923" stroke-width="2.66667" stroke-linecap="round" stroke-linejoin="round"/>
<path d="M27.3326 26.6693C27.7008 26.6693 27.9993 26.3708 27.9993 26.0026C27.9993 25.6344 27.7008 25.3359 27.3326 25.3359C26.9644 25.3359 26.666 25.6344 26.666 26.0026C26.666 26.3708 26.9644 26.6693 27.3326 26.6693Z" stroke="#16D923" stroke-width="2.66667" stroke-linecap="round" stroke-linejoin="round"/>
</svg>
