<svg width="64" height="64" viewBox="0 0 64 64" fill="none" xmlns="http://www.w3.org/2000/svg">
<path d="M0 16C0 7.16344 7.16344 0 16 0H48C56.8366 0 64 7.16344 64 16V48C64 56.8366 56.8366 64 48 64H16C7.16344 64 0 56.8366 0 48V16Z" fill="#00A63E" fill-opacity="0.1"/>
<path d="M22.0007 38.0004C20.0007 39.6804 19.334 44.6671 19.334 44.6671C19.334 44.6671 24.3207 44.0004 26.0007 42.0004C26.9474 40.8804 26.934 39.1604 25.8807 38.1204C25.3624 37.6257 24.6797 37.3399 23.9636 37.3178C23.2475 37.2956 22.5485 37.5387 22.0007 38.0004Z" stroke="#00A63E" stroke-width="2.66667" stroke-linecap="round" stroke-linejoin="round"/>
<path d="M32 36.0016L28 32.0016C28.7095 30.1608 29.6029 28.3964 30.6667 26.7349C32.2202 24.2509 34.3835 22.2057 36.9507 20.7938C39.5178 19.3818 42.4036 18.6501 45.3333 18.6683C45.3333 22.295 44.2933 28.6683 37.3333 33.3349C35.6492 34.3999 33.8625 35.2933 32 36.0016Z" stroke="#00A63E" stroke-width="2.66667" stroke-linecap="round" stroke-linejoin="round"/>
<path d="M28.0007 32.0006H21.334C21.334 32.0006 22.0673 27.9606 24.0007 26.6673C26.1607 25.2273 30.6674 26.6673 30.6674 26.6673" stroke="#00A63E" stroke-width="2.66667" stroke-linecap="round" stroke-linejoin="round"/>
<path d="M32 36.0026V42.6693C32 42.6693 36.04 41.9359 37.3333 40.0026C38.7733 37.8426 37.3333 33.3359 37.3333 33.3359" stroke="#00A63E" stroke-width="2.66667" stroke-linecap="round" stroke-linejoin="round"/>
</svg>
