<svg width="54" height="54" viewBox="0 0 54 54" fill="none" xmlns="http://www.w3.org/2000/svg">
<g filter="url(#filter0_dd_2726_701)">
<path d="M3 16C3 8.26801 9.26801 2 17 2H37C44.732 2 51 8.26801 51 16V36C51 43.732 44.732 50 37 50H17C9.26801 50 3 43.732 3 36V16Z" fill="white" shape-rendering="crispEdges"/>
<path d="M24 31H22C20.6739 31 19.4021 30.4732 18.4645 29.5355C17.5268 28.5979 17 27.3261 17 26C17 24.6739 17.5268 23.4021 18.4645 22.4645C19.4021 21.5268 20.6739 21 22 21H24" stroke="#009966" stroke-width="2" stroke-linecap="round" stroke-linejoin="round"/>
<path d="M30 21H32C33.3261 21 34.5979 21.5268 35.5355 22.4645C36.4732 23.4021 37 24.6739 37 26C37 27.3261 36.4732 28.5979 35.5355 29.5355C34.5979 30.4732 33.3261 31 32 31H30" stroke="#009966" stroke-width="2" stroke-linecap="round" stroke-linejoin="round"/>
<path d="M23 26H31" stroke="#009966" stroke-width="2" stroke-linecap="round" stroke-linejoin="round"/>
</g>
<defs>
<filter id="filter0_dd_2726_701" x="0" y="0" width="54" height="54" filterUnits="userSpaceOnUse" color-interpolation-filters="sRGB">
<feFlood flood-opacity="0" result="BackgroundImageFix"/>
<feColorMatrix in="SourceAlpha" type="matrix" values="0 0 0 0 0 0 0 0 0 0 0 0 0 0 0 0 0 0 127 0" result="hardAlpha"/>
<feMorphology radius="1" operator="erode" in="SourceAlpha" result="effect1_dropShadow_2726_701"/>
<feOffset dy="1"/>
<feGaussianBlur stdDeviation="1"/>
<feComposite in2="hardAlpha" operator="out"/>
<feColorMatrix type="matrix" values="0 0 0 0 0 0 0 0 0 0 0 0 0 0 0 0 0 0 0.1 0"/>
<feBlend mode="normal" in2="BackgroundImageFix" result="effect1_dropShadow_2726_701"/>
<feColorMatrix in="SourceAlpha" type="matrix" values="0 0 0 0 0 0 0 0 0 0 0 0 0 0 0 0 0 0 127 0" result="hardAlpha"/>
<feOffset dy="1"/>
<feGaussianBlur stdDeviation="1.5"/>
<feComposite in2="hardAlpha" operator="out"/>
<feColorMatrix type="matrix" values="0 0 0 0 0 0 0 0 0 0 0 0 0 0 0 0 0 0 0.1 0"/>
<feBlend mode="normal" in2="effect1_dropShadow_2726_701" result="effect2_dropShadow_2726_701"/>
<feBlend mode="normal" in="SourceGraphic" in2="effect2_dropShadow_2726_701" result="shape"/>
</filter>
</defs>
</svg>
