<svg width="54" height="54" viewBox="0 0 54 54" fill="none" xmlns="http://www.w3.org/2000/svg">
<g filter="url(#filter0_dd_2726_712)">
<path d="M3 16C3 8.26801 9.26801 2 17 2H37C44.732 2 51 8.26801 51 16V36C51 43.732 44.732 50 37 50H17C9.26801 50 3 43.732 3 36V16Z" fill="white" shape-rendering="crispEdges"/>
<path d="M33 22C34.6569 22 36 20.6569 36 19C36 17.3431 34.6569 16 33 16C31.3431 16 30 17.3431 30 19C30 20.6569 31.3431 22 33 22Z" stroke="#009966" stroke-width="2" stroke-linecap="round" stroke-linejoin="round"/>
<path d="M21 29C22.6569 29 24 27.6569 24 26C24 24.3431 22.6569 23 21 23C19.3431 23 18 24.3431 18 26C18 27.6569 19.3431 29 21 29Z" stroke="#009966" stroke-width="2" stroke-linecap="round" stroke-linejoin="round"/>
<path d="M33 36C34.6569 36 36 34.6569 36 33C36 31.3431 34.6569 30 33 30C31.3431 30 30 31.3431 30 33C30 34.6569 31.3431 36 33 36Z" stroke="#009966" stroke-width="2" stroke-linecap="round" stroke-linejoin="round"/>
<path d="M23.5898 27.5117L30.4198 31.4917" stroke="#009966" stroke-width="2" stroke-linecap="round" stroke-linejoin="round"/>
<path d="M30.4098 20.5117L23.5898 24.4917" stroke="#009966" stroke-width="2" stroke-linecap="round" stroke-linejoin="round"/>
</g>
<defs>
<filter id="filter0_dd_2726_712" x="0" y="0" width="54" height="54" filterUnits="userSpaceOnUse" color-interpolation-filters="sRGB">
<feFlood flood-opacity="0" result="BackgroundImageFix"/>
<feColorMatrix in="SourceAlpha" type="matrix" values="0 0 0 0 0 0 0 0 0 0 0 0 0 0 0 0 0 0 127 0" result="hardAlpha"/>
<feMorphology radius="1" operator="erode" in="SourceAlpha" result="effect1_dropShadow_2726_712"/>
<feOffset dy="1"/>
<feGaussianBlur stdDeviation="1"/>
<feComposite in2="hardAlpha" operator="out"/>
<feColorMatrix type="matrix" values="0 0 0 0 0 0 0 0 0 0 0 0 0 0 0 0 0 0 0.1 0"/>
<feBlend mode="normal" in2="BackgroundImageFix" result="effect1_dropShadow_2726_712"/>
<feColorMatrix in="SourceAlpha" type="matrix" values="0 0 0 0 0 0 0 0 0 0 0 0 0 0 0 0 0 0 127 0" result="hardAlpha"/>
<feOffset dy="1"/>
<feGaussianBlur stdDeviation="1.5"/>
<feComposite in2="hardAlpha" operator="out"/>
<feColorMatrix type="matrix" values="0 0 0 0 0 0 0 0 0 0 0 0 0 0 0 0 0 0 0.1 0"/>
<feBlend mode="normal" in2="effect1_dropShadow_2726_712" result="effect2_dropShadow_2726_712"/>
<feBlend mode="normal" in="SourceGraphic" in2="effect2_dropShadow_2726_712" result="shape"/>
</filter>
</defs>
</svg>
